<?xml version="1.0" encoding="UTF-8"?>
<!DOCTYPE svg PUBLIC "-//W3C//DTD SVG 1.1//EN" "http://www.w3.org/Graphics/SVG/1.1/DTD/svg11.dtd">
<!-- Creator: CorelDRAW X6 -->
<svg xmlns="http://www.w3.org/2000/svg" xml:space="preserve" width="1.238in" height="1.161in" version="1.1" style="shape-rendering:geometricPrecision; text-rendering:geometricPrecision; image-rendering:optimizeQuality; fill-rule:evenodd; clip-rule:evenodd"
viewBox="0 0 1238 1161"
 xmlns:xlink="http://www.w3.org/1999/xlink">
 <defs>
  <style type="text/css">
   <![CDATA[
    .fil5 {fill:#30384B;fill-rule:nonzero}
    .fil2 {fill:#354554;fill-rule:nonzero}
    .fil11 {fill:#AAACAE;fill-rule:nonzero}
    .fil15 {fill:#B53E3A;fill-rule:nonzero}
    .fil10 {fill:#D3D4D5;fill-rule:nonzero}
    .fil14 {fill:#DA343E;fill-rule:nonzero}
    .fil13 {fill:#E13A3A;fill-rule:nonzero}
    .fil12 {fill:#E85A4D;fill-rule:nonzero}
    .fil9 {fill:#F1F2F2;fill-rule:nonzero}
    .fil0 {fill:#FEFEFE;fill-rule:nonzero}
    .fil4 {fill:#2A909A;fill-rule:nonzero;fill-opacity:0.901961}
    .fil6 {fill:#2E3237;fill-rule:nonzero;fill-opacity:0.901961}
    .fil3 {fill:#315971;fill-rule:nonzero;fill-opacity:0.901961}
    .fil7 {fill:#324660;fill-rule:nonzero;fill-opacity:0.901961}
    .fil8 {fill:#37374B;fill-rule:nonzero;fill-opacity:0.901961}
    .fil1 {fill:#384D64;fill-rule:nonzero;fill-opacity:0.901961}
   ]]>
  </style>
 </defs>
 <g id="Layer_x0020_1">
  <metadata id="CorelCorpID_0Corel-Layer"/>
  <g id="_418432328">
   <g>
    <polygon class="fil0" points="309,1161 0,582 309,0 929,0 1238,579 928,1161 "/>
    <g>
     <polygon class="fil1" points="1169,577 1031,836 893,577 "/>
     <polygon class="fil2" points="893,577 755,836 617,577 "/>
     <polygon class="fil3" points="893,577 1031,836 755,836 "/>
     <polygon class="fil4" points="894,577 1170,577 1032,318 "/>
     <polygon class="fil2" points="617,577 480,836 342,577 "/>
     <polygon class="fil5" points="617,577 755,836 480,836 "/>
     <polygon class="fil6" points="342,577 204,836 66,577 "/>
     <polygon class="fil3" points="342,577 480,836 204,836 "/>
     <polygon class="fil7" points="480,320 756,320 618,580 "/>
     <polygon class="fil3" points="756,320 894,580 618,580 "/>
     <polygon class="fil1" points="618,61 480,320 342,61 "/>
     <polygon class="fil5" points="342,61 480,320 205,320 "/>
     <polygon class="fil5" points="480,320 756,320 618,61 "/>
     <polygon class="fil1" points="756,320 894,61 618,61 "/>
     <polygon class="fil4" points="894,61 756,320 1032,320 "/>
     <polygon class="fil7" points="894,580 1032,320 756,320 "/>
     <polygon class="fil3" points="480,320 342,580 205,320 "/>
     <polygon class="fil2" points="205,320 342,580 67,580 "/>
     <polygon class="fil8" points="480,320 618,580 342,580 "/>
     <polygon class="fil8" points="617,1096 755,836 893,1096 "/>
     <polygon class="fil7" points="893,1096 755,836 1031,836 "/>
     <polygon class="fil6" points="755,836 480,836 617,1096 "/>
     <polygon class="fil6" points="342,1096 480,836 204,836 "/>
    </g>
    <g>
     <g>
      <polygon class="fil9" points="297,943 277,874 345,895 "/>
      <polygon class="fil10" points="345,895 277,874 324,827 "/>
      <polygon class="fil11" points="277,874 242,908 254,929 297,943 "/>
      <polygon class="fil10" points="273,966 297,943 254,929 "/>
      <polygon class="fil9" points="372,780 393,848 324,827 "/>
      <polygon class="fil10" points="324,827 393,848 345,895 "/>
      <polygon class="fil11" points="393,848 440,801 372,780 "/>
      <polygon class="fil10" points="440,801 420,733 372,780 "/>
      <polygon class="fil9" points="420,733 440,801 488,754 "/>
     </g>
     <g>
      <polygon class="fil9" points="536,707 516,638 584,660 "/>
      <polygon class="fil10" points="584,660 516,638 564,591 "/>
      <polygon class="fil11" points="516,638 468,686 536,707 "/>
      <polygon class="fil10" points="468,686 488,754 536,707 "/>
      <polygon class="fil9" points="488,754 468,686 420,733 "/>
     </g>
     <g>
      <polygon class="fil12" points="275,952 260,902 310,918 "/>
      <polygon class="fil13" points="310,918 260,902 295,868 "/>
      <polygon class="fil14" points="260,902 246,916 264,949 275,952 "/>
      <polygon class="fil15" points="269,958 275,952 264,949 "/>
     </g>
     <g>
      <polygon class="fil12" points="380,849 365,799 415,815 "/>
      <polygon class="fil13" points="415,815 365,799 400,765 "/>
      <polygon class="fil14" points="365,799 330,834 380,849 "/>
      <polygon class="fil15" points="330,834 345,884 380,849 "/>
      <polygon class="fil15" points="295,868 310,918 345,884 "/>
      <polygon class="fil14" points="345,884 330,834 295,868 "/>
     </g>
     <g>
      <polygon class="fil12" points="484,746 469,696 519,712 "/>
      <polygon class="fil13" points="519,712 469,696 504,662 "/>
      <polygon class="fil14" points="469,696 434,731 484,746 "/>
      <polygon class="fil15" points="434,731 449,781 484,746 "/>
      <polygon class="fil14" points="449,781 434,731 399,765 "/>
     </g>
     <g>
      <polygon class="fil12" points="414,815 399,765 449,781 "/>
      <polygon class="fil14" points="574,593 539,628 589,643 "/>
      <polygon class="fil15" points="539,628 554,678 589,643 "/>
      <polygon class="fil15" points="504,662 519,712 554,678 "/>
      <polygon class="fil14" points="554,678 539,628 504,662 "/>
     </g>
    </g>
    <g>
     <g>
      <polygon class="fil9" points="746,494 726,425 794,447 "/>
      <polygon class="fil10" points="794,447 726,425 773,378 "/>
      <polygon class="fil11" points="726,425 678,472 746,494 "/>
      <polygon class="fil10" points="678,472 698,541 746,494 "/>
      <polygon class="fil9" points="698,541 678,472 630,519 "/>
      <polygon class="fil9" points="821,331 842,399 773,378 "/>
      <polygon class="fil10" points="773,378 842,399 794,447 "/>
      <polygon class="fil11" points="842,399 889,352 821,331 "/>
      <polygon class="fil10" points="889,352 869,284 821,331 "/>
      <polygon class="fil9" points="869,284 889,352 937,305 "/>
     </g>
     <g>
      <polygon class="fil9" points="985,258 972,214 992,251 "/>
      <polygon class="fil11" points="961,193 917,237 985,258 972,214 "/>
      <polygon class="fil10" points="917,237 937,305 985,258 "/>
      <polygon class="fil9" points="937,305 917,237 869,284 "/>
     </g>
     <g>
      <polygon class="fil12" points="724,503 709,453 759,469 "/>
      <polygon class="fil13" points="759,469 709,453 744,419 "/>
      <polygon class="fil14" points="709,453 674,488 724,503 "/>
      <polygon class="fil15" points="674,488 689,538 724,503 "/>
      <polygon class="fil14" points="689,538 674,488 639,522 "/>
     </g>
     <g>
      <polygon class="fil12" points="829,400 814,350 864,366 "/>
      <polygon class="fil13" points="864,366 814,350 849,316 "/>
      <polygon class="fil14" points="814,350 779,385 829,400 "/>
      <polygon class="fil15" points="779,385 794,435 829,400 "/>
      <polygon class="fil15" points="744,419 759,469 794,435 "/>
      <polygon class="fil14" points="794,435 779,385 744,419 "/>
     </g>
     <g>
      <polygon class="fil12" points="933,298 918,248 968,263 "/>
      <polygon class="fil13" points="968,263 918,248 953,213 "/>
      <polygon class="fil14" points="918,248 883,282 933,298 "/>
      <polygon class="fil15" points="883,282 898,332 933,298 "/>
      <polygon class="fil14" points="898,332 883,282 848,316 "/>
     </g>
     <g>
      <polygon class="fil12" points="863,366 848,316 898,332 "/>
      <polygon class="fil15" points="953,213 968,263 988,243 975,220 "/>
      <polygon class="fil14" points="965,201 953,213 975,220 "/>
     </g>
    </g>
    <g>
     <g>
      <polygon class="fil9" points="931,943 951,874 883,895 "/>
      <polygon class="fil10" points="883,895 951,874 903,827 "/>
      <polygon class="fil11" points="951,874 990,913 983,926 931,943 "/>
      <polygon class="fil10" points="959,971 931,943 983,926 "/>
      <polygon class="fil9" points="855,780 835,848 903,827 "/>
      <polygon class="fil10" points="903,827 835,848 883,895 "/>
      <polygon class="fil11" points="835,848 787,801 855,780 "/>
      <polygon class="fil10" points="787,801 807,733 855,780 "/>
      <polygon class="fil9" points="807,733 787,801 739,754 "/>
     </g>
     <g>
      <polygon class="fil9" points="691,707 712,638 643,660 "/>
      <polygon class="fil10" points="643,660 712,638 664,591 "/>
      <polygon class="fil11" points="712,638 759,686 691,707 "/>
      <polygon class="fil10" points="759,686 739,754 691,707 "/>
      <polygon class="fil9" points="739,754 759,686 807,733 "/>
     </g>
     <g>
      <polygon class="fil12" points="953,952 967,902 918,918 "/>
      <polygon class="fil13" points="918,918 967,902 933,868 "/>
      <polygon class="fil14" points="967,902 986,921 972,946 953,952 "/>
      <polygon class="fil15" points="963,963 953,952 972,946 "/>
     </g>
     <g>
      <polygon class="fil12" points="848,849 863,799 813,815 "/>
      <polygon class="fil13" points="813,815 863,799 828,765 "/>
      <polygon class="fil14" points="863,799 898,834 848,849 "/>
      <polygon class="fil15" points="898,834 883,884 848,849 "/>
      <polygon class="fil15" points="933,868 918,918 883,884 "/>
      <polygon class="fil14" points="883,884 898,834 933,868 "/>
     </g>
     <g>
      <polygon class="fil12" points="744,746 758,696 709,712 "/>
      <polygon class="fil13" points="709,712 758,696 724,662 "/>
      <polygon class="fil14" points="758,696 793,731 744,746 "/>
      <polygon class="fil15" points="793,731 778,781 744,746 "/>
      <polygon class="fil14" points="778,781 793,731 828,765 "/>
     </g>
     <g>
      <polygon class="fil12" points="813,815 828,765 778,781 "/>
      <polygon class="fil14" points="654,593 689,628 639,643 "/>
      <polygon class="fil15" points="689,628 674,678 639,643 "/>
      <polygon class="fil15" points="724,662 709,712 674,678 "/>
      <polygon class="fil14" points="674,678 689,628 724,662 "/>
     </g>
    </g>
    <g>
     <g>
      <polygon class="fil9" points="482,494 502,425 434,447 "/>
      <polygon class="fil10" points="434,447 502,425 454,378 "/>
      <polygon class="fil11" points="502,425 550,472 482,494 "/>
      <polygon class="fil10" points="550,472 529,541 482,494 "/>
      <polygon class="fil9" points="529,541 550,472 598,519 "/>
      <polygon class="fil9" points="406,331 386,399 454,378 "/>
      <polygon class="fil10" points="454,378 386,399 434,447 "/>
      <polygon class="fil11" points="386,399 338,352 406,331 "/>
      <polygon class="fil10" points="338,352 358,284 406,331 "/>
      <polygon class="fil9" points="358,284 338,352 290,305 "/>
     </g>
     <g>
      <polygon class="fil9" points="242,258 246,247 241,256 "/>
      <polygon class="fil11" points="272,198 311,237 242,258 246,247 "/>
      <polygon class="fil10" points="311,237 290,305 242,258 "/>
      <polygon class="fil9" points="290,305 311,237 358,284 "/>
     </g>
     <g>
      <polygon class="fil12" points="504,503 518,453 469,469 "/>
      <polygon class="fil13" points="469,469 518,453 484,419 "/>
      <polygon class="fil14" points="518,453 553,488 504,503 "/>
      <polygon class="fil15" points="553,488 539,538 504,503 "/>
      <polygon class="fil14" points="539,538 553,488 588,522 "/>
     </g>
     <g>
      <polygon class="fil12" points="399,400 414,350 364,366 "/>
      <polygon class="fil13" points="364,366 414,350 379,316 "/>
      <polygon class="fil14" points="414,350 449,385 399,400 "/>
      <polygon class="fil15" points="449,385 434,435 399,400 "/>
      <polygon class="fil15" points="484,419 469,469 434,435 "/>
      <polygon class="fil14" points="434,435 449,385 484,419 "/>
     </g>
     <g>
      <polygon class="fil12" points="295,298 309,248 260,263 "/>
      <polygon class="fil13" points="260,263 309,248 275,213 "/>
      <polygon class="fil14" points="309,248 344,282 295,298 "/>
      <polygon class="fil15" points="344,282 330,332 295,298 "/>
      <polygon class="fil14" points="330,332 344,282 379,316 "/>
     </g>
     <g>
      <polygon class="fil12" points="364,366 379,316 330,332 "/>
      <polygon class="fil15" points="275,213 260,263 245,248 261,217 "/>
      <polygon class="fil14" points="267,206 275,213 261,217 "/>
     </g>
    </g>
    <polygon class="fil7" points="480,836 342,1095 342,1096 617,1096 "/>
    <g>
     <g>
      <polygon class="fil9" points="688,979 546,903 688,828 "/>
      <polygon class="fil10" points="688,828 546,903 546,752 "/>
      <polygon class="fil11" points="546,903 546,1055 688,979 "/>
      <polygon class="fil10" points="546,1055 623,1096 688,1096 688,979 "/>
      <polygon class="fil9" points="623,1096 546,1055 546,1096 "/>
      <polygon class="fil9" points="546,601 688,677 546,752 "/>
      <polygon class="fil10" points="546,752 688,677 688,828 "/>
      <polygon class="fil11" points="688,677 688,525 546,601 "/>
      <polygon class="fil10" points="688,525 546,450 546,601 "/>
      <polygon class="fil9" points="546,450 688,525 688,374 "/>
     </g>
     <g>
      <polygon class="fil9" points="688,223 546,147 688,72 "/>
      <polygon class="fil10" points="688,72 546,147 546,65 677,65 "/>
      <polygon class="fil11" points="546,147 546,298 688,223 "/>
      <polygon class="fil10" points="546,298 688,374 688,223 "/>
      <polygon class="fil9" points="688,374 546,298 546,450 "/>
     </g>
     <g>
      <polygon class="fil12" points="669,1030 566,975 669,919 "/>
      <polygon class="fil13" points="669,919 566,975 566,864 "/>
      <polygon class="fil14" points="566,975 566,1085 669,1030 "/>
      <polygon class="fil15" points="566,1085 585,1096 669,1096 669,1030 "/>
      <polygon class="fil14" points="585,1096 566,1085 566,1096 "/>
     </g>
     <g>
      <polygon class="fil12" points="669,699 566,644 669,588 "/>
      <polygon class="fil13" points="669,588 566,644 566,533 "/>
      <polygon class="fil14" points="566,644 566,754 669,699 "/>
      <polygon class="fil15" points="566,754 669,809 669,699 "/>
      <polygon class="fil15" points="566,864 669,919 669,809 "/>
      <polygon class="fil14" points="669,809 566,754 566,864 "/>
     </g>
     <g>
      <polygon class="fil12" points="669,369 566,314 669,259 "/>
      <polygon class="fil13" points="669,259 566,314 566,204 "/>
      <polygon class="fil14" points="566,314 566,424 669,369 "/>
      <polygon class="fil15" points="566,424 669,480 669,369 "/>
      <polygon class="fil14" points="669,480 566,424 566,535 "/>
     </g>
     <g>
      <polygon class="fil12" points="669,590 566,535 669,480 "/>
      <polygon class="fil14" points="566,65 566,93 618,65 "/>
      <polygon class="fil15" points="566,93 669,148 669,65 618,65 "/>
      <polygon class="fil15" points="566,204 669,259 669,148 "/>
      <polygon class="fil14" points="669,148 566,93 566,204 "/>
     </g>
    </g>
    <g>
     <g>
      <polygon class="fil9" points="257,651 332,509 408,651 "/>
      <polygon class="fil10" points="408,651 332,509 483,509 "/>
      <polygon class="fil11" points="332,509 181,509 257,651 "/>
      <polygon class="fil10" points="181,509 105,651 257,651 "/>
      <polygon class="fil9" points="105,651 181,509 106,509 68,580 "/>
      <polygon class="fil9" points="635,509 559,651 483,509 "/>
      <polygon class="fil10" points="483,509 559,651 408,651 "/>
      <polygon class="fil11" points="559,651 710,651 635,509 "/>
      <polygon class="fil10" points="710,651 786,509 635,509 "/>
      <polygon class="fil9" points="786,509 710,651 862,651 "/>
     </g>
     <g>
      <polygon class="fil9" points="1013,651 1088,509 1147,619 1130,651 "/>
      <polygon class="fil10" points="1147,619 1088,509 1129,509 1168,581 "/>
      <polygon class="fil11" points="1088,509 937,509 1013,651 "/>
      <polygon class="fil10" points="937,509 862,651 1013,651 "/>
      <polygon class="fil9" points="862,651 937,509 786,509 "/>
     </g>
     <g>
      <polygon class="fil12" points="206,631 261,528 316,631 "/>
      <polygon class="fil13" points="316,631 261,528 371,528 "/>
      <polygon class="fil14" points="261,528 151,528 206,631 "/>
      <polygon class="fil15" points="151,528 95,631 206,631 "/>
      <polygon class="fil14" points="95,631 151,528 96,528 68,580 "/>
     </g>
     <g>
      <polygon class="fil12" points="537,631 592,528 647,631 "/>
      <polygon class="fil13" points="647,631 592,528 702,528 "/>
      <polygon class="fil14" points="592,528 482,528 537,631 "/>
      <polygon class="fil15" points="482,528 426,631 537,631 "/>
      <polygon class="fil15" points="371,528 316,631 426,631 "/>
      <polygon class="fil14" points="426,631 482,528 371,528 "/>
     </g>
     <g>
      <polygon class="fil12" points="866,631 922,528 977,631 "/>
      <polygon class="fil13" points="977,631 922,528 1032,528 "/>
      <polygon class="fil14" points="922,528 811,528 866,631 "/>
      <polygon class="fil15" points="811,528 756,631 866,631 "/>
      <polygon class="fil14" points="756,631 811,528 701,528 "/>
     </g>
     <g>
      <polygon class="fil12" points="646,631 701,528 756,631 "/>
      <polygon class="fil15" points="1141,530 1087,631 1140,631 1168,581 "/>
      <polygon class="fil15" points="1032,528 977,631 1087,631 "/>
      <polygon class="fil14" points="1087,631 1141,530 1140,528 1032,528 "/>
     </g>
    </g>
    <polygon class="fil12" points="592,528 620,506 669,480 669,528 "/>
    <polygon class="fil14" points="566,509 565,539 586,539 592,528 669,480 592,487 "/>
    <polygon class="fil13" points="669,547 669,480 570,539 607,575 "/>
    <g>
     <polygon class="fil12" points="669,699 566,644 669,588 "/>
     <polygon class="fil13" points="669,588 566,644 566,533 "/>
     <polygon class="fil14" points="566,644 566,754 669,699 "/>
     <polygon class="fil15" points="566,754 669,809 669,699 "/>
     <polygon class="fil15" points="566,864 669,919 669,809 "/>
     <polygon class="fil14" points="669,809 566,754 566,864 "/>
    </g>
   </g>
  </g>
 </g>
</svg>
