<?xml version="1.0" encoding="UTF-8"?>
<!DOCTYPE svg PUBLIC "-//W3C//DTD SVG 1.1//EN" "http://www.w3.org/Graphics/SVG/1.1/DTD/svg11.dtd">
<!-- Creator: CorelDRAW X6 -->
<svg xmlns="http://www.w3.org/2000/svg" xml:space="preserve" width="1.238in" height="1.161in" version="1.1" style="shape-rendering:geometricPrecision; text-rendering:geometricPrecision; image-rendering:optimizeQuality; fill-rule:evenodd; clip-rule:evenodd"
viewBox="0 0 1238 1161"
 xmlns:xlink="http://www.w3.org/1999/xlink">
 <defs>
  <style type="text/css">
   <![CDATA[
    .fil5 {fill:#3A3939;fill-rule:nonzero}
    .fil6 {fill:#474343;fill-rule:nonzero}
    .fil2 {fill:#B43737;fill-rule:nonzero}
    .fil7 {fill:#B53E3A;fill-rule:nonzero}
    .fil1 {fill:#DA343E;fill-rule:nonzero}
    .fil3 {fill:#E13A3A;fill-rule:nonzero}
    .fil4 {fill:#E85A4D;fill-rule:nonzero}
    .fil10 {fill:#F39434;fill-rule:nonzero}
    .fil9 {fill:#FBB030;fill-rule:nonzero}
    .fil0 {fill:#FEFEFE;fill-rule:nonzero}
    .fil8 {fill:#F5D145;fill-rule:nonzero;fill-opacity:0.901961}
   ]]>
  </style>
 </defs>
 <g id="Layer_x0020_1">
  <metadata id="CorelCorpID_0Corel-Layer"/>
  <g id="_340240776">
   <polygon class="fil0" points="309,1161 0,582 309,0 516,0 929,0 1238,579 928,1161 "/>
   <polygon class="fil1" points="1169,579 1032,838 894,579 "/>
   <polygon class="fil2" points="894,579 756,838 618,579 "/>
   <polygon class="fil1" points="894,579 1032,838 756,838 "/>
   <polygon class="fil3" points="894,579 1170,579 1032,320 "/>
   <polygon class="fil4" points="618,579 480,838 342,579 "/>
   <polygon class="fil1" points="618,579 756,838 480,838 "/>
   <polygon class="fil3" points="342,579 204,838 66,579 "/>
   <polygon class="fil2" points="342,579 480,838 204,838 "/>
   <polygon class="fil4" points="481,323 757,323 619,582 "/>
   <polygon class="fil1" points="757,323 894,582 619,582 "/>
   <polygon class="fil5" points="619,63 481,323 343,63 "/>
   <polygon class="fil6" points="343,63 481,323 205,323 "/>
   <polygon class="fil6" points="481,323 757,323 619,63 "/>
   <polygon class="fil5" points="757,323 894,63 619,63 "/>
   <polygon class="fil6" points="894,63 757,323 1032,323 "/>
   <polygon class="fil4" points="894,582 1032,323 757,323 "/>
   <polygon class="fil1" points="481,323 343,582 205,323 "/>
   <polygon class="fil4" points="205,323 343,582 67,582 "/>
   <polygon class="fil7" points="481,323 619,582 343,582 "/>
   <g>
    <polygon class="fil8" points="618,1098 756,838 894,1098 "/>
   </g>
   <polygon class="fil9" points="894,1098 756,838 1032,838 "/>
   <polygon class="fil10" points="756,838 480,838 618,1098 "/>
   <g>
    <polygon class="fil8" points="480,838 342,1098 618,1098 "/>
   </g>
   <polygon class="fil10" points="342,1098 480,838 204,838 "/>
  </g>
 </g>
</svg>
