<?xml version="1.0" encoding="UTF-8"?>
<!DOCTYPE svg PUBLIC "-//W3C//DTD SVG 1.1//EN" "http://www.w3.org/Graphics/SVG/1.1/DTD/svg11.dtd">
<!-- Creator: CorelDRAW X6 -->
<svg xmlns="http://www.w3.org/2000/svg" xml:space="preserve" width="1.238in" height="1.161in" version="1.1" style="shape-rendering:geometricPrecision; text-rendering:geometricPrecision; image-rendering:optimizeQuality; fill-rule:evenodd; clip-rule:evenodd"
viewBox="0 0 1238 1161"
 xmlns:xlink="http://www.w3.org/1999/xlink">
 <defs>
  <style type="text/css">
   <![CDATA[
    .fil10 {fill:#B53E3A;fill-rule:nonzero}
    .fil8 {fill:#DA343E;fill-rule:nonzero}
    .fil7 {fill:#E13A3A;fill-rule:nonzero}
    .fil6 {fill:#E85A4D;fill-rule:nonzero}
    .fil9 {fill:#EB825F;fill-rule:nonzero}
    .fil1 {fill:#F39434;fill-rule:nonzero}
    .fil5 {fill:#F4B553;fill-rule:nonzero}
    .fil2 {fill:#FBB030;fill-rule:nonzero}
    .fil0 {fill:#FEFEFE;fill-rule:nonzero}
    .fil11 {fill:#806A48;fill-rule:nonzero;fill-opacity:0.800000}
    .fil4 {fill:#F5D145;fill-rule:nonzero;fill-opacity:0.901961}
    .fil3 {fill:#F7ED44;fill-rule:nonzero;fill-opacity:0.901961}
   ]]>
  </style>
 </defs>
 <g id="Layer_x0020_1">
  <metadata id="CorelCorpID_0Corel-Layer"/>
  <g id="_414522000">
   <g>
    <polygon class="fil0" points="309,1161 0,582 309,0 929,0 1238,579 928,1161 "/>
    <polygon class="fil1" points="1171,577 1033,836 895,577 "/>
    <polygon class="fil2" points="895,577 757,836 619,577 "/>
    <polygon class="fil2" points="895,577 1033,836 757,836 "/>
    <polygon class="fil2" points="896,577 1171,577 1033,318 "/>
    <g>
     <polygon class="fil3" points="619,577 481,836 343,577 "/>
    </g>
    <g>
     <polygon class="fil4" points="619,577 757,836 481,836 "/>
    </g>
    <polygon class="fil2" points="343,577 205,836 67,577 "/>
    <polygon class="fil2" points="343,577 481,836 205,836 "/>
    <g>
     <polygon class="fil3" points="482,320 758,320 620,580 "/>
    </g>
    <polygon class="fil5" points="758,320 896,580 620,580 "/>
    <polygon class="fil6" points="620,61 482,320 344,61 "/>
    <polygon class="fil7" points="344,61 482,320 206,320 "/>
    <polygon class="fil8" points="482,320 758,320 620,61 "/>
    <polygon class="fil7" points="758,320 896,61 620,61 "/>
    <polygon class="fil9" points="896,61 758,320 1033,320 "/>
    <g>
     <polygon class="fil3" points="896,580 1033,320 758,320 "/>
    </g>
    <polygon class="fil1" points="482,320 344,580 206,320 "/>
    <g>
     <polygon class="fil4" points="206,320 344,580 68,580 "/>
    </g>
    <polygon class="fil2" points="482,320 620,580 344,580 "/>
    <polygon class="fil6" points="619,1096 757,836 895,1096 "/>
    <polygon class="fil7" points="895,1096 757,836 1033,836 "/>
    <polygon class="fil8" points="757,836 481,836 619,1096 "/>
    <polygon class="fil10" points="481,836 343,1096 619,1096 "/>
    <polygon class="fil8" points="343,1096 481,836 205,836 "/>
    <polygon class="fil11" points="343,479 449,678 237,678 "/>
    <polygon class="fil11" points="343,678 237,479 449,479 "/>
   </g>
  </g>
 </g>
</svg>
