<?xml version="1.0" encoding="UTF-8"?>
<!DOCTYPE svg PUBLIC "-//W3C//DTD SVG 1.1//EN" "http://www.w3.org/Graphics/SVG/1.1/DTD/svg11.dtd">
<!-- Creator: CorelDRAW X6 -->
<svg xmlns="http://www.w3.org/2000/svg" xml:space="preserve" width="1.238in" height="1.161in" version="1.1" style="shape-rendering:geometricPrecision; text-rendering:geometricPrecision; image-rendering:optimizeQuality; fill-rule:evenodd; clip-rule:evenodd"
viewBox="0 0 1238 1161"
 xmlns:xlink="http://www.w3.org/1999/xlink">
 <defs>
  <style type="text/css">
   <![CDATA[
    .fil8 {fill:#356840;fill-rule:nonzero}
    .fil6 {fill:#3F9D50;fill-rule:nonzero}
    .fil5 {fill:#62B46D;fill-rule:nonzero}
    .fil11 {fill:#B53E3A;fill-rule:nonzero}
    .fil10 {fill:#C1E1C2;fill-rule:nonzero}
    .fil2 {fill:#DA343E;fill-rule:nonzero}
    .fil3 {fill:#E85A4D;fill-rule:nonzero}
    .fil1 {fill:#ED3437;fill-rule:nonzero}
    .fil0 {fill:#FEFEFE;fill-rule:nonzero}
    .fil9 {fill:#347D48;fill-rule:nonzero;fill-opacity:0.901961}
    .fil7 {fill:#ED3437;fill-rule:nonzero;fill-opacity:0.901961}
    .fil4 {fill:#FEFEFE;fill-rule:nonzero;fill-opacity:0.901961}
   ]]>
  </style>
 </defs>
 <g id="Layer_x0020_1">
  <metadata id="CorelCorpID_0Corel-Layer"/>
  <g id="_340383344">
   <g>
    <g>
     <polygon class="fil0" points="309,1161 0,582 309,0 929,0 1238,579 928,1161 "/>
     <g>
      <polygon class="fil1" points="1171,577 1033,836 895,577 "/>
     </g>
     <g>
      <polygon class="fil0" points="895,577 757,836 619,577 "/>
     </g>
     <polygon class="fil2" points="895,577 1033,836 757,836 "/>
     <polygon class="fil3" points="896,577 1172,577 1034,318 "/>
     <g>
      <polygon class="fil4" points="619,577 482,836 344,577 "/>
     </g>
     <g>
      <polygon class="fil4" points="619,577 757,836 482,836 "/>
     </g>
     <g>
      <polygon class="fil5" points="344,577 206,836 68,577 "/>
     </g>
     <g>
      <polygon class="fil6" points="344,577 482,836 206,836 "/>
     </g>
     <g>
      <polygon class="fil4" points="482,320 758,320 620,580 "/>
     </g>
     <g>
      <polygon class="fil0" points="758,320 896,580 620,580 "/>
     </g>
     <g>
      <polygon class="fil0" points="620,61 482,320 344,61 "/>
     </g>
     <g>
      <polygon class="fil5" points="344,61 482,320 206,320 "/>
     </g>
     <g>
      <polygon class="fil0" points="482,320 758,320 620,61 "/>
     </g>
     <g>
      <polygon class="fil0" points="758,320 896,61 620,61 "/>
     </g>
     <polygon class="fil3" points="896,61 758,320 1034,320 "/>
     <g>
      <polygon class="fil7" points="896,580 1034,320 758,320 "/>
     </g>
     <g>
      <polygon class="fil8" points="482,320 344,580 206,320 "/>
     </g>
     <g>
      <polygon class="fil9" points="206,320 344,580 69,580 "/>
     </g>
     <g>
      <polygon class="fil10" points="482,320 620,580 344,580 "/>
     </g>
     <g>
      <polygon class="fil0" points="619,1096 757,836 895,1096 "/>
     </g>
     <polygon class="fil11" points="895,1096 757,836 1033,836 "/>
     <g>
      <polygon class="fil0" points="757,836 482,836 619,1096 "/>
     </g>
     <g>
      <polygon class="fil10" points="482,836 344,1096 619,1096 "/>
     </g>
     <g>
      <polygon class="fil8" points="344,1096 482,836 206,836 "/>
     </g>
     <g>
      <polygon class="fil6" points="344,61 482,61 482,320 "/>
     </g>
     <g>
      <polygon class="fil5" points="344,577 482,577 482,836 "/>
     </g>
     <polygon class="fil2" points="896,61 759,61 758,320 "/>
     <polygon class="fil3" points="896,577 759,577 758,836 "/>
     <polygon class="fil2" points="896,1094 759,1094 758,835 "/>
     <polygon class="fil11" points="896,578 759,578 758,319 "/>
     <g>
      <polygon class="fil6" points="344,1094 482,1094 482,835 "/>
     </g>
     <g>
      <polygon class="fil9" points="344,578 482,578 482,319 "/>
     </g>
    </g>
   </g>
  </g>
 </g>
</svg>
